<svg version="1.1" xmlns="http://www.w3.org/2000/svg" viewBox="0 0 329.5 218.93402189597845" width="329.5" height="218.93402189597845">
  <!-- svg-source:excalidraw -->
  
  <defs>
    <style>
      @font-face {
        font-family: "Virgil";
        src: url("https://excalidraw.com/Virgil.woff2");
      }
      @font-face {
        font-family: "Cascadia";
        src: url("https://excalidraw.com/Cascadia.woff2");
      }
    </style>
  </defs>
  <g transform="translate(19.5 163.93402189597845) rotate(0 150 22.5)"><text x="0" y="32" font-family="Virgil, Segoe UI Emoji" font-size="36px" fill="#000000" text-anchor="start" style="white-space: pre;" direction="ltr">1  1  2  3  5  8</text></g><g stroke-linecap="round"><g transform="translate(23.194042481723272 111.68402189597845) rotate(0 0.8033635866034956 26.00793150547426)"><path d="M-0.77 -0.92 C-0.3 7.73, 1.99 42.95, 2.37 51.6 M1.03 1.22 C1.46 10.05, 1.91 44.51, 1.86 52.93" stroke="#000000" stroke-width="1" fill="none"></path></g><g transform="translate(23.194042481723272 111.68402189597845) rotate(0 0.8033635866034956 26.00793150547426)"><path d="M-8.7 29.92 C-5.53 34.93, -4.19 42.99, 2.44 54.01 M-7.48 29.29 C-3.6 34.35, -2.32 42.2, 1.64 52.82" stroke="#000000" stroke-width="1" fill="none"></path></g><g transform="translate(23.194042481723272 111.68402189597845) rotate(0 0.8033635866034956 26.00793150547426)"><path d="M9.09 29.81 C7.61 34.74, 4.28 42.83, 2.44 54.01 M10.32 29.18 C9.43 34.17, 5.94 42.06, 1.64 52.82" stroke="#000000" stroke-width="1" fill="none"></path></g></g><g transform="translate(10 63.68402189597845) rotate(0 12.5 22.5)"><text x="0" y="32" font-family="Virgil, Segoe UI Emoji" font-size="36px" fill="#000000" text-anchor="start" style="white-space: pre;" direction="ltr">a</text></g><g stroke-linecap="round"><g transform="translate(70.95697252890488 110.5) rotate(0 0.8058289262778544 26.168377795135598)"><path d="M0.61 0.65 C0.96 9.13, 1.75 42.62, 2.14 51.24 M-0.53 -0.05 C-0.39 8.54, 0.42 44, 0.89 52.38" stroke="#000000" stroke-width="1" fill="none"></path></g><g transform="translate(70.95697252890488 110.5) rotate(0 0.8058289262778544 26.168377795135598)"><path d="M-7.81 27.32 C-7.13 35.92, -2.22 43.65, 0.98 50.95 M-8.43 28.27 C-6.8 33.65, -3.69 40.37, -0.06 52.2" stroke="#000000" stroke-width="1" fill="none"></path></g><g transform="translate(70.95697252890488 110.5) rotate(0 0.8058289262778544 26.168377795135598)"><path d="M9.99 26.66 C5.3 35.56, 4.82 43.48, 0.98 50.95 M9.37 27.62 C6.43 33.16, 4.98 40.05, -0.06 52.2" stroke="#000000" stroke-width="1" fill="none"></path></g></g><g transform="translate(59.76865459102328 62.5) rotate(0 9.5 22.5)"><text x="0" y="32" font-family="Virgil, Segoe UI Emoji" font-size="36px" fill="#000000" text-anchor="start" style="white-space: pre;" direction="ltr">b</text></g><g transform="translate(63.39365459102328 10) rotate(0 71 22.5)"><text x="0" y="32" font-family="Virgil, Segoe UI Emoji" font-size="36px" fill="#000000" text-anchor="start" style="white-space: pre;" direction="ltr">c = a+b</text></g><g stroke-linecap="round"><g transform="translate(129.93407514381488 52.427882021665596) rotate(0 -0.7183004336719137 56.36437256041448)"><path d="M-0.65 -0.7 C-1.02 17.81, -1.5 93.45, -1.6 112.12 M1.2 1.55 C0.61 20.74, -2.13 95.01, -2.64 113.43" stroke="#000000" stroke-width="1" fill="none"></path></g><g transform="translate(129.93407514381488 52.427882021665596) rotate(0 -0.7183004336719137 56.36437256041448)"><path d="M-13.13 84.61 C-9.18 95.33, -7.14 103.23, -1.56 113.56 M-11.41 85.31 C-9.9 93.56, -5.2 104.28, -2.53 113.65" stroke="#000000" stroke-width="1" fill="none"></path></g><g transform="translate(129.93407514381488 52.427882021665596) rotate(0 -0.7183004336719137 56.36437256041448)"><path d="M7.38 85.29 C4.11 95.65, -1.08 103.32, -1.56 113.56 M9.1 85.98 C3.92 94.16, 1.92 104.66, -2.53 113.65" stroke="#000000" stroke-width="1" fill="none"></path></g></g></svg>