<svg version="1.1" xmlns="http://www.w3.org/2000/svg" viewBox="0 0 429.8271097779277 716.1631383411275" width="429.8271097779277" height="716.1631383411275" filter="invert(93%) hue-rotate(180deg)">
  <!-- svg-source:excalidraw -->
  
  <defs>
    <style>
      @font-face {
        font-family: "Virgil";
        src: url("https://excalidraw.com/Virgil.woff2");
      }
      @font-face {
        font-family: "Cascadia";
        src: url("https://excalidraw.com/Cascadia.woff2");
      }
    </style>
  </defs>
  <g transform="translate(68.41994739044503 163.93402189597845) rotate(0 150 22.5)"><text x="0" y="32" font-family="Virgil, Segoe UI Emoji" font-size="36px" fill="#000000" text-anchor="start" style="white-space: pre;" direction="ltr">1  1  2  3  5  8</text></g><g stroke-linecap="round"><g transform="translate(72.1139898721683 111.68402189597845) rotate(0 0.8033635866034956 26.00793150547426)"><path d="M-0.77 -0.92 C-0.3 7.73, 1.99 42.95, 2.37 51.6 M1.03 1.22 C1.46 10.05, 1.91 44.51, 1.86 52.93" stroke="#000000" stroke-width="1" fill="none"></path></g><g transform="translate(72.1139898721683 111.68402189597845) rotate(0 0.8033635866034956 26.00793150547426)"><path d="M-8.7 29.92 C-5.53 34.93, -4.19 42.99, 2.44 54.01 M-7.48 29.29 C-3.6 34.35, -2.32 42.2, 1.64 52.82" stroke="#000000" stroke-width="1" fill="none"></path></g><g transform="translate(72.1139898721683 111.68402189597845) rotate(0 0.8033635866034956 26.00793150547426)"><path d="M9.09 29.81 C7.61 34.74, 4.28 42.83, 2.44 54.01 M10.32 29.18 C9.43 34.17, 5.94 42.06, 1.64 52.82" stroke="#000000" stroke-width="1" fill="none"></path></g></g><g transform="translate(58.91994739044503 63.68402189597845) rotate(0 12.5 22.5)"><text x="0" y="32" font-family="Virgil, Segoe UI Emoji" font-size="36px" fill="#000000" text-anchor="start" style="white-space: pre;" direction="ltr">a</text></g><g stroke-linecap="round"><g transform="translate(119.87691991934992 110.5) rotate(0 0.8058289262778544 26.168377795135598)"><path d="M0.61 0.65 C0.96 9.13, 1.75 42.62, 2.14 51.24 M-0.53 -0.05 C-0.39 8.54, 0.42 44, 0.89 52.38" stroke="#000000" stroke-width="1" fill="none"></path></g><g transform="translate(119.87691991934992 110.5) rotate(0 0.8058289262778544 26.168377795135598)"><path d="M-7.81 27.32 C-7.13 35.92, -2.22 43.65, 0.98 50.95 M-8.43 28.27 C-6.8 33.65, -3.69 40.37, -0.06 52.2" stroke="#000000" stroke-width="1" fill="none"></path></g><g transform="translate(119.87691991934992 110.5) rotate(0 0.8058289262778544 26.168377795135598)"><path d="M9.99 26.66 C5.3 35.56, 4.82 43.48, 0.98 50.95 M9.37 27.62 C6.43 33.16, 4.98 40.05, -0.06 52.2" stroke="#000000" stroke-width="1" fill="none"></path></g></g><g transform="translate(108.68860198146831 62.5) rotate(0 9.5 22.5)"><text x="0" y="32" font-family="Virgil, Segoe UI Emoji" font-size="36px" fill="#000000" text-anchor="start" style="white-space: pre;" direction="ltr">b</text></g><g transform="translate(112.31360198146831 10) rotate(0 71 22.5)"><text x="0" y="32" font-family="Virgil, Segoe UI Emoji" font-size="36px" fill="#000000" text-anchor="start" style="white-space: pre;" direction="ltr">c = a+b</text></g><g stroke-linecap="round"><g transform="translate(178.8540225342599 52.427882021665596) rotate(0 -0.7183004336719137 56.36437256041448)"><path d="M-0.65 -0.7 C-1.02 17.81, -1.5 93.45, -1.6 112.12 M1.2 1.55 C0.61 20.74, -2.13 95.01, -2.64 113.43" stroke="#000000" stroke-width="1" fill="none"></path></g><g transform="translate(178.8540225342599 52.427882021665596) rotate(0 -0.7183004336719137 56.36437256041448)"><path d="M-13.13 84.61 C-9.18 95.33, -7.14 103.23, -1.56 113.56 M-11.41 85.31 C-9.9 93.56, -5.2 104.28, -2.53 113.65" stroke="#000000" stroke-width="1" fill="none"></path></g><g transform="translate(178.8540225342599 52.427882021665596) rotate(0 -0.7183004336719137 56.36437256041448)"><path d="M7.38 85.29 C4.11 95.65, -1.08 103.32, -1.56 113.56 M9.1 85.98 C3.92 94.16, 1.92 104.66, -2.53 113.65" stroke="#000000" stroke-width="1" fill="none"></path></g></g><g transform="translate(52.75678379965029 411.4472292502184) rotate(0 150 22.5)"><text x="0" y="32" font-family="Virgil, Segoe UI Emoji" font-size="36px" fill="#000000" text-anchor="start" style="white-space: pre;" direction="ltr">1  1  2  3  5  8</text></g><g stroke-linecap="round"><g transform="translate(105.20082628137334 355.4472292502184) rotate(0 1.211828389148991 26.41464450854346)"><path d="M0.88 -0.98 C1.39 7.69, 2.44 43.18, 2.55 52.18 M-0.12 1.12 C0.36 9.99, 1.98 45.46, 2.12 53.81" stroke="#000000" stroke-width="1" fill="none"></path></g><g transform="translate(105.20082628137334 355.4472292502184) rotate(0 1.211828389148991 26.41464450854346)"><path d="M-9.24 31.34 C-4.77 35.77, -0.82 42.55, 0.95 52.43 M-6.79 30.4 C-4.57 37.75, 0.12 46.34, 2.25 54.28" stroke="#000000" stroke-width="1" fill="none"></path></g><g transform="translate(105.20082628137334 355.4472292502184) rotate(0 1.211828389148991 26.41464450854346)"><path d="M8.54 30.74 C8.44 35.45, 7.8 42.39, 0.95 52.43 M11 29.79 C6.83 37.44, 5.14 46.24, 2.25 54.28" stroke="#000000" stroke-width="1" fill="none"></path></g></g><g transform="translate(92.0067837996503 307.4472292502184) rotate(0 12.5 22.5)"><text x="0" y="32" font-family="Virgil, Segoe UI Emoji" font-size="36px" fill="#000000" text-anchor="start" style="white-space: pre;" direction="ltr">a</text></g><g stroke-linecap="round"><g transform="translate(149.83875632855506 354.8882073542399) rotate(0 1.363787508768553 26.136948841842838)"><path d="M1 0.18 C1.29 9.18, 2.33 44.53, 2.67 53.05 M0.06 -0.77 C0.12 8.01, 1.31 42.63, 1.7 51.47" stroke="#000000" stroke-width="1" fill="none"></path></g><g transform="translate(149.83875632855506 354.8882073542399) rotate(0 1.363787508768553 26.136948841842838)"><path d="M-7.83 27.3 C-2.92 36.78, -2.16 43.89, 2.88 51.03 M-8.54 26.81 C-3.77 34.94, -1.06 44.31, 1.51 51.92" stroke="#000000" stroke-width="1" fill="none"></path></g><g transform="translate(149.83875632855506 354.8882073542399) rotate(0 1.363787508768553 26.136948841842838)"><path d="M9.97 26.62 C8.23 36.5, 2.35 43.86, 2.88 51.03 M9.26 26.13 C7.93 34.62, 4.53 44.22, 1.51 51.92" stroke="#000000" stroke-width="1" fill="none"></path></g></g><g transform="translate(138.65043839067357 306.8882073542399) rotate(0 9.5 22.5)"><text x="0" y="32" font-family="Virgil, Segoe UI Emoji" font-size="36px" fill="#000000" text-anchor="start" style="white-space: pre;" direction="ltr">b</text></g><g transform="translate(149.15043839067357 256.26320735423997) rotate(0 71 22.5)"><text x="0" y="32" font-family="Virgil, Segoe UI Emoji" font-size="36px" fill="#000000" text-anchor="start" style="white-space: pre;" direction="ltr">c = a+b</text></g><g stroke-linecap="round"><g transform="translate(215.69085894346506 299.3160893759055) rotate(0 -0.5356621070213805 56.13117505124771)"><path d="M1.05 0.3 C0.66 18.93, -1.82 93.08, -2.12 111.74 M0.13 -0.58 C0.13 18.18, 0.43 93.83, 0.23 112.85" stroke="#000000" stroke-width="1" fill="none"></path></g><g transform="translate(215.69085894346506 299.3160893759055) rotate(0 -0.5356621070213805 56.13117505124771)"><path d="M-9.46 83.46 C-8.15 94.61, -4 103.18, 1.86 114.27 M-10.59 84.76 C-7.01 91.67, -4.39 99.24, -0.51 113.5" stroke="#000000" stroke-width="1" fill="none"></path></g><g transform="translate(215.69085894346506 299.3160893759055) rotate(0 -0.5356621070213805 56.13117505124771)"><path d="M11.06 83.51 C5.91 94.82, 3.6 103.37, 1.86 114.27 M9.93 84.81 C8.19 91.87, 5.5 99.43, -0.51 113.5" stroke="#000000" stroke-width="1" fill="none"></path></g></g><g transform="translate(52.47269289055953 661.1631383411275) rotate(0 150 22.5)"><text x="0" y="32" font-family="Virgil, Segoe UI Emoji" font-size="36px" fill="#000000" text-anchor="start" style="white-space: pre;" direction="ltr">1  1  2  3  5  8</text></g><g stroke-linecap="round"><g transform="translate(159.29173537228257 608.9131383411275) rotate(0 0.7778598558295471 26.151997565063652)"><path d="M-0.7 -0.83 C-0.5 7.74, 1.8 42.77, 2.26 51.73 M1.13 1.35 C1.15 10.08, 1.61 44.83, 1.68 53.13" stroke="#000000" stroke-width="1" fill="none"></path></g><g transform="translate(159.29173537228257 608.9131383411275) rotate(0 0.7778598558295471 26.151997565063652)"><path d="M-8.87 29.97 C-4.32 39.13, 1.3 49.12, 0.86 52.03 M-7.02 28.6 C-3.71 38.08, -1.42 47.91, 1.25 53.47" stroke="#000000" stroke-width="1" fill="none"></path></g><g transform="translate(159.29173537228257 608.9131383411275) rotate(0 0.7778598558295471 26.151997565063652)"><path d="M8.92 29.77 C6.58 38.9, 5.32 48.97, 0.86 52.03 M10.77 28.4 C7.33 37.98, 2.86 47.88, 1.25 53.47" stroke="#000000" stroke-width="1" fill="none"></path></g></g><g transform="translate(146.09769289055953 560.9131383411275) rotate(0 12.5 22.5)"><text x="0" y="32" font-family="Virgil, Segoe UI Emoji" font-size="36px" fill="#000000" text-anchor="start" style="white-space: pre;" direction="ltr">a</text></g><g stroke-linecap="round"><g transform="translate(213.3046654194644 607.729116445149) rotate(0 1.4214610049254475 25.764281833055406)"><path d="M0.71 -0.27 C1.36 8.7, 2.75 44.35, 3.22 52.98 M-0.38 -1.45 C0.22 7.27, 1.94 42.37, 2.55 51.37" stroke="#000000" stroke-width="1" fill="none"></path></g><g transform="translate(213.3046654194644 607.729116445149) rotate(0 1.4214610049254475 25.764281833055406)"><path d="M-8.18 28.31 C-3.79 34.6, -3.75 37.84, 4.14 50.12 M-7.29 27.52 C-5.15 35.61, -1.62 42.77, 1.85 51.77" stroke="#000000" stroke-width="1" fill="none"></path></g><g transform="translate(213.3046654194644 607.729116445149) rotate(0 1.4214610049254475 25.764281833055406)"><path d="M9.6 27.3 C9.69 33.93, 5.43 37.42, 4.14 50.12 M10.49 26.5 C7.07 34.87, 5.04 42.35, 1.85 51.77" stroke="#000000" stroke-width="1" fill="none"></path></g></g><g transform="translate(202.1163474815828 559.729116445149) rotate(0 9.5 22.5)"><text x="0" y="32" font-family="Virgil, Segoe UI Emoji" font-size="36px" fill="#000000" text-anchor="start" style="white-space: pre;" direction="ltr">b</text></g><g transform="translate(213.86634748158292 506.6041164451489) rotate(0 71 22.5)"><text x="0" y="32" font-family="Virgil, Segoe UI Emoji" font-size="36px" fill="#000000" text-anchor="start" style="white-space: pre;" direction="ltr">c = a+b</text></g><g stroke-linecap="round"><g transform="translate(280.4067680343745 549.0319984668147) rotate(0 -1.0653050586170139 56.680474215364086)"><path d="M0.98 0.86 C0.71 19.42, -1.66 93.42, -1.9 111.91 M0.03 0.26 C-0.42 18.93, -2.98 94.35, -3.11 113.1" stroke="#000000" stroke-width="1" fill="none"></path></g><g transform="translate(280.4067680343745 549.0319984668147) rotate(0 -1.0653050586170139 56.680474215364086)"><path d="M-11.31 83.87 C-11.04 94.09, -8.51 100.65, -2.16 112.71 M-12.08 84.26 C-9.06 93.87, -5.67 104.49, -2.97 112.98" stroke="#000000" stroke-width="1" fill="none"></path></g><g transform="translate(280.4067680343745 549.0319984668147) rotate(0 -1.0653050586170139 56.680474215364086)"><path d="M9.21 84.33 C3.77 94.59, 0.6 101.02, -2.16 112.71 M8.43 84.72 C4.38 94.02, 0.68 104.48, -2.97 112.98" stroke="#000000" stroke-width="1" fill="none"></path></g></g><g stroke-linecap="round"><g transform="translate(13.216574009440365 233.0781204001313) rotate(0 203.73374368440028 -0.23308439301143835)"><path d="M0.86 -0.49 C68.54 -0.65, 339 0.09, 406.61 0.04" stroke="#000000" stroke-width="1.5" fill="none" stroke-dasharray="1.5 7"></path></g></g><g stroke-linecap="round"><g transform="translate(10.48930128216739 485.3508476728586) rotate(0 203.86866240989082 -1.1604485257105353)"><path d="M-0.49 -0.66 C67.39 -1.08, 340.24 -1.71, 408.23 -1.66" stroke="#000000" stroke-width="1.5" fill="none" stroke-dasharray="1.5 7"></path></g></g></svg>