<svg version="1.1" xmlns="http://www.w3.org/2000/svg" viewBox="0 0 931.0000000000002 270.14285714285734" width="931.0000000000002" height="270.14285714285734">
  <!-- svg-source:excalidraw -->
  
  <defs>
    <style>
      @font-face {
        font-family: "Virgil";
        src: url("https://excalidraw.com/Virgil.woff2");
      }
      @font-face {
        font-family: "Cascadia";
        src: url("https://excalidraw.com/Cascadia.woff2");
      }
    </style>
  </defs>
  <rect x="0" y="0" width="931.0000000000002" height="270.14285714285734" fill="#ffffff"></rect><g transform="translate(94.39082554872027 109.11037062352875) rotate(0 402.00000000000006 34)"><text x="0" y="27" font-family="Cascadia, Segoe UI Emoji" font-size="28px" fill="#000000" text-anchor="start" style="white-space: pre;" direction="ltr">days = ['Пн', 'Вт', 'Ср', 'Чт', 'Пт', 'Сб', 'Нд']</text><text x="0" y="61" font-family="Cascadia, Segoe UI Emoji" font-size="28px" fill="#000000" text-anchor="start" style="white-space: pre;" direction="ltr">         </text></g><g transform="translate(257.85714285714334 152.857142857143) rotate(0 299.5 12)"><text x="0" y="19" font-family="Cascadia, Segoe UI Emoji" font-size="20px" fill="#d9480f" text-anchor="start" style="white-space: pre;" direction="ltr">0       1        2       3        4       5       6</text></g><g stroke-linecap="round" transform="translate(10 40.21428571428589) rotate(0 81 24.5)"><path d="M1.99 -0.86 C38.19 3.04, 73.01 1.63, 163.75 0.94 M-0.72 -0.21 C43.11 1.39, 87.46 2.55, 161.33 0.45 M163.23 -0.13 C163.37 18.67, 162.63 35.27, 163.75 50.04 M162.2 0.69 C162.76 15.4, 162.77 29.6, 161.85 48.64 M162.79 50.35 C110.42 49.72, 55.11 49.94, -1.32 48.43 M161.62 48.59 C116.9 48.29, 74.08 47.58, 0.4 48.13 M0.99 47.98 C-1.33 34.63, 1.78 18.89, -0.73 1.93 M0.11 49.1 C0.78 29.61, -0.59 11.5, -0.67 -0.14" stroke="#364fc7" stroke-width="1" fill="none"></path></g><g transform="translate(15 52.71428571428589) rotate(0 76 12)"><text x="76" y="19" font-family="Cascadia, Segoe UI Emoji" font-size="20px" fill="#364fc7" text-anchor="middle" style="white-space: pre;" direction="ltr">назва списку</text></g><g stroke-linecap="round"><g transform="translate(115.00000000000023 89.50000000000023) rotate(0 8.396556678660431 13.333149905746268)"><path d="M0.32 0.16 C2.88 4.65, 12.99 21.66, 15.53 26.35 M-0.98 -0.8 C1.94 3.87, 14.61 22.92, 17.77 27.47" stroke="#364fc7" stroke-width="1" fill="none"></path></g><g transform="translate(115.00000000000023 89.50000000000023) rotate(0 8.396556678660431 13.333149905746268)"><path d="M5.14 16.97 C7.87 19.86, 14.44 24.07, 18.91 27.91 M5.61 17.85 C8.77 21.33, 13.51 23.73, 17.11 28.13" stroke="#364fc7" stroke-width="1" fill="none"></path></g><g transform="translate(115.00000000000023 89.50000000000023) rotate(0 8.396556678660431 13.333149905746268)"><path d="M14.13 10.89 C14 15.72, 17.74 21.84, 18.91 27.91 M14.6 11.77 C14.78 17.2, 16.51 21.64, 17.11 28.13" stroke="#364fc7" stroke-width="1" fill="none"></path></g></g><g stroke-linecap="round" transform="translate(435.85714285714334 211.42857142857167) rotate(0 86.5 23.999999999999943)"><path d="M-1.26 -0.87 C47.94 1.44, 94.67 0.47, 172.05 1.82 M-0.15 -0.75 C66.58 1, 131.03 1.64, 172.33 -0.83 M172.7 -0.64 C173.03 12.71, 173.54 26.49, 172.39 47.59 M172.16 0.07 C173.61 17.6, 172.69 36.86, 173.12 47.67 M172.11 49.23 C109.41 48.74, 47.09 45.58, 0.96 49.07 M172.31 48.36 C111.16 47.88, 50.04 47.24, -0.58 47.36 M-0.4 48.16 C-0.5 31.59, 1.65 17.78, 0.84 -0.57 M0.29 47.78 C-1.1 36.5, -0.21 24.12, 0.55 0.99" stroke="#d9480f" stroke-width="1" fill="none"></path></g><g transform="translate(440.85714285714334 223.42857142857167) rotate(0 81.5 11.999999999999943)"><text x="81.5" y="19" font-family="Cascadia, Segoe UI Emoji" font-size="20px" fill="#d9480f" text-anchor="middle" style="white-space: pre;" direction="ltr">індекс</text></g><g stroke-linecap="round"><g transform="translate(613.8762715536793 225.91058304459864) rotate(0 112.35830986757776 -27.68501906184349)"><path d="M1.2 0.55 C38.5 -8.46, 187.5 -44.9, 224.35 -54.14 M0.37 -0.21 C37.57 -9.55, 186.61 -47.01, 224 -55.92" stroke="#d9480f" stroke-width="1" fill="none"></path></g><g transform="translate(613.8762715536793 225.91058304459864) rotate(0 112.35830986757776 -27.68501906184349)"><path d="M199.99 -37.31 C208.74 -46.68, 215.99 -49.8, 222.33 -55.05 M198.83 -39.95 C205.4 -44.64, 213.63 -48.61, 223.68 -56.34" stroke="#d9480f" stroke-width="1" fill="none"></path></g><g transform="translate(613.8762715536793 225.91058304459864) rotate(0 112.35830986757776 -27.68501906184349)"><path d="M195.09 -57.24 C205.5 -59.83, 214.43 -56.11, 222.33 -55.05 M193.94 -59.88 C201.96 -59.05, 211.54 -57.52, 223.68 -56.34" stroke="#d9480f" stroke-width="1" fill="none"></path></g></g><g stroke-linecap="round" transform="translate(759.0000000000002 10) rotate(0 81 29)"><path d="M-1.99 1.55 C54.02 1.45, 107.35 1.91, 162.61 1.63 M-0.86 0.94 C37.73 -0.88, 77.81 -1.09, 162.78 0.77 M160.28 0.03 C160.64 17.24, 160.61 37.18, 162.21 58.32 M162.12 0.81 C161.63 21.05, 161.26 40.43, 162.27 57.35 M160.71 59.32 C101.05 57.24, 38.73 57, 1.8 58.8 M161.69 58.71 C111.36 57.16, 59.56 57.61, -0.34 58.59 M-1.12 56.36 C-0.44 47.18, 0.22 35.01, 1.74 1.39 M0.26 57.18 C0.6 41.18, -0.65 23.2, 0.52 -0.74" stroke="#000000" stroke-width="1" fill="none"></path></g><g transform="translate(764.0000000000002 15) rotate(0 76 24)"><text x="76" y="19" font-family="Cascadia, Segoe UI Emoji" font-size="20px" fill="#000000" text-anchor="middle" style="white-space: pre;" direction="ltr">елемент </text><text x="76" y="43" font-family="Cascadia, Segoe UI Emoji" font-size="20px" fill="#000000" text-anchor="middle" style="white-space: pre;" direction="ltr">списку</text></g><g stroke-linecap="round"><g transform="translate(845.7142857142858 67.35714285714312) rotate(0 2.9731445429400765 24.188803689849067)"><path d="M0.33 1.09 C1.53 9.14, 6.1 40.22, 6.9 47.77 M-0.96 0.61 C0.21 8.37, 5.74 38.2, 6.58 45.97" stroke="#000000" stroke-width="1" fill="none"></path></g><g transform="translate(845.7142857142858 67.35714285714312) rotate(0 2.9731445429400765 24.188803689849067)"><path d="M-2.98 27.11 C-0.7 29.95, 0.09 35.73, 4.93 46.88 M-4.05 25.58 C-1.26 31.9, 0.78 36.5, 7.38 46.05" stroke="#000000" stroke-width="1" fill="none"></path></g><g transform="translate(845.7142857142858 67.35714285714312) rotate(0 2.9731445429400765 24.188803689849067)"><path d="M13.08 24.68 C10.9 28.23, 7.23 34.7, 4.93 46.88 M12 23.15 C10.17 30.25, 7.6 35.54, 7.38 46.05" stroke="#000000" stroke-width="1" fill="none"></path></g></g><g transform="translate(90.71428571428623 192.14285714285734) rotate(0 115 34)"><text x="0" y="27" font-family="Cascadia, Segoe UI Emoji" font-size="28px" fill="#000000" text-anchor="start" style="white-space: pre;" direction="ltr">print(days[6])</text><text x="0" y="61" font-family="Cascadia, Segoe UI Emoji" font-size="28px" fill="#000000" text-anchor="start" style="white-space: pre;" direction="ltr">'Нд'</text></g><g stroke-linecap="round"><g transform="translate(144.28571428571445 140.92857142857156) rotate(0 38.0125802674923 26.530663548544908)"><path d="M0.71 0.88 C13.48 9.87, 63.82 44.21, 76.4 52.77 M-0.37 0.3 C12.36 9.07, 63.35 42.83, 76.07 51.13" stroke="#364fc7" stroke-width="1" fill="none"></path></g><g transform="translate(144.28571428571445 140.92857142857156) rotate(0 38.0125802674923 26.530663548544908)"><path d="M48.35 46.16 C56.57 47.59, 63.86 47.08, 77.39 51.74 M47.01 43.5 C56.24 47.84, 66.85 49.26, 76.86 50.52" stroke="#364fc7" stroke-width="1" fill="none"></path></g><g transform="translate(144.28571428571445 140.92857142857156) rotate(0 38.0125802674923 26.530663548544908)"><path d="M59.63 29.02 C64.51 35.35, 68.61 39.67, 77.39 51.74 M58.3 26.36 C63.43 36.65, 70.06 44.12, 76.86 50.52" stroke="#364fc7" stroke-width="1" fill="none"></path></g></g><g stroke-linecap="round"><g transform="translate(428.72178105616854 259.1800838122674) rotate(0 -75.54689341274116 -15.233214355120651)"><path d="M1 -0.07 C-24.31 -4.93, -125.96 -23.54, -151.16 -28.4 M0.06 -1.16 C-25.46 -6.46, -127 -25.88, -152.09 -30.39" stroke="#d9480f" stroke-width="1" fill="none"></path></g><g transform="translate(428.72178105616854 259.1800838122674) rotate(0 -75.54689341274116 -15.233214355120651)"><path d="M-122.62 -35.26 C-132.61 -31.7, -144.55 -29.85, -150.92 -30.25 M-122.71 -36.01 C-133.36 -32.98, -143.36 -31.33, -151.46 -30.89" stroke="#d9480f" stroke-width="1" fill="none"></path></g><g transform="translate(428.72178105616854 259.1800838122674) rotate(0 -75.54689341274116 -15.233214355120651)"><path d="M-126.39 -15.08 C-135.16 -18.75, -145.76 -24.09, -150.92 -30.25 M-126.47 -15.83 C-135.71 -20.06, -144.36 -25.69, -151.46 -30.89" stroke="#d9480f" stroke-width="1" fill="none"></path></g></g></svg>